<svg xmlns="http://www.w3.org/2000/svg" viewBox="0 0 32 32" id="Box"><path fill="#62fcf2" fill-rule="evenodd" d="M13.496 13.723v14.774s-8.093-3.463-11.484-4.91l-.01-.017V8.805l.01.019 11.474 4.91z" class="colorfcd062 svgShape"></path><path fill="#3af8eb" fill-rule="evenodd" d="m24.98 8.804-.01.018-11.474 4.911v14.765l11.475-4.912.01-.018V8.804z" class="colorf8aa3a svgShape"></path><path fill="#4ef8ed" fill-rule="evenodd" d="M13.304 3.896 2 8.806v.012l11.497 4.933 11.503-4.945-11.384-4.91h-.31z" class="colorf8b84e svgShape"></path><path fill="none" stroke="#1c7e77" stroke-linecap="round" stroke-linejoin="round" stroke-width=".908" d="m21.194 22.104-2.868 1.227-2.869 1.228m2.869-3.191-2.869 1.227" class="colorStroke1c4d7e svgStroke"></path><path fill="#e9eded" fill-rule="evenodd" d="m17.043 5.38-.07.025-11.42 4.938v6.935l2.027-1 2 3-.002-7.206L21 7.082z" class="colore9eded svgShape"></path><path style="line-height:normal;text-indent:0;text-align:start;text-decoration-line:none;text-decoration-style:solid;text-decoration-color:#000;text-transform:none;block-progression:tb;isolation:auto;mix-blend-mode:normal" fill="#01b3a7" d="M107.5 1973.613a5.508 5.508 0 0 0-5.5 5.5c0 3.032 2.468 5.5 5.5 5.5s5.5-2.468 5.5-5.5-2.468-5.5-5.5-5.5z" color="#000" font-family="sans-serif" font-weight="400" overflow="visible" transform="translate(-82.688 -1955.613)" class="color25b39e svgShape"></path><path style="line-height:normal;text-indent:0;text-align:start;text-decoration-line:none;text-decoration-style:solid;text-decoration-color:#000;text-transform:none;block-progression:tb;isolation:auto;mix-blend-mode:normal" fill="#e9eded" fill-rule="evenodd" d="M110.236 1977.113a.5.5 0 0 0-.31.106l-3.579 2.705-1.193-1.45a.5.5 0 1 0-.772.637l1.498 1.819a.5.5 0 0 0 .688.082l3.96-2.996a.5.5 0 0 0-.292-.903z" color="#000" font-family="sans-serif" font-weight="400" overflow="visible" transform="translate(-82.688 -1955.613)" class="colore9eded svgShape"></path></svg>