<svg xmlns="http://www.w3.org/2000/svg" viewBox="0 0 512 512"><path fill="#01b3a7" d="M188.66 323.34a14.624 14.624 0 0 0 20.68 0l113-113a14.623 14.623 0 0 0-20.68-20.68l-113 113a14.624 14.624 0 0 0 0 20.68Z" class="color000000 svgShape"/><path fill="#01b3a7" d="M467.89 44.11a96.146 96.146 0 0 0-135.78 0l-76 76a96.125 96.125 0 0 0-18.12 110.58l37.7-37.7a48.546 48.546 0 0 1 13.97-39.33l76-76a48.564 48.564 0 0 1 68.68 68.68l-76 76a48.546 48.546 0 0 1-39.33 13.97l-37.7 37.7a96.1 96.1 0 0 0 110.58-18.12l76-76a96.146 96.146 0 0 0 0-135.78zm-231.58 274.9a48.546 48.546 0 0 1-13.97 39.33l-76 76a48.564 48.564 0 0 1-68.68-68.68l76-76a48.546 48.546 0 0 1 39.33-13.97l37.7-37.7a96.125 96.125 0 0 0-110.58 18.12l-76 76a96.011 96.011 0 0 0 135.78 135.78l76-76a96.125 96.125 0 0 0 18.12-110.58z" class="color000000 svgShape"/></svg>