<svg xmlns="http://www.w3.org/2000/svg" enable-background="new 0 0 128 128" viewBox="0 0 128 128"><polyline fill="#fff" points="64 31 64 4 84 4 84 31" class="colorffffff svgShape"/><path fill="#fff" d="M46,54V36c0-2.8,2.2-5,5-5h46c2.8,0,5,2.2,5,5v18" class="colorffffff svgShape"/><path fill="#01b3a7" d="M102,57c-1.7,0-3-1.3-3-3V36c0-1.1-0.9-2-2-2H51c-1.1,0-2,0.9-2,2v18c0,1.7-1.3,3-3,3s-3-1.3-3-3V36
			c0-4.4,3.6-8,8-8h46c4.4,0,8,3.6,8,8v18C105,55.7,103.7,57,102,57z" class="color444b54 svgShape"/><path fill="#fff" d="M32,90.8V59c0-2.8,2.2-5,5-5h74c2.8,0,5,2.2,5,5v35" class="colorffffff svgShape"/><polyline fill="#fff" points="31 124 21 94 74 74 124 94 114 124" class="colorffffff svgShape"/><path fill="#01b3a7" d="M74 127c-1.7 0-3-1.3-3-3V74c0-1.7 1.3-3 3-3s3 1.3 3 3v50C77 125.7 75.7 127 74 127zM54 97c-.8 0-1.6-.3-2.1-.9C51.3 95.6 51 94.8 51 94c0-.2 0-.4.1-.6 0-.2.1-.4.2-.6.1-.2.2-.3.3-.5.1-.2.2-.3.4-.4 1.1-1.1 3.1-1.1 4.2 0 .1.1.3.3.4.4.1.2.2.3.3.5.1.2.1.4.2.6 0 .2.1.4.1.6 0 .8-.3 1.6-.9 2.1C55.6 96.7 54.8 97 54 97z" class="color444b54 svgShape"/><path fill="#01b3a7" d="M125.1 91.2l-6.1-2.4V59c0-4.4-3.6-8-8-8h-6V36c0-4.4-3.6-8-8-8H87V4c0-1.7-1.3-3-3-3H64c-1.7 0-3 1.3-3 3v24H51c-4.4 0-8 3.6-8 8v15h-6c-4.4 0-8 3.6-8 8v20c0 1.7 1.3 3 3 3s3-1.3 3-3V59c0-1.1.9-2 2-2h74c1.1 0 2 .9 2 2v27.4L75.1 71.2c-.7-.3-1.5-.3-2.2 0l-50 20c-1.5.6-2.2 2.2-1.7 3.7l5.3 16c.5 1.6 2.2 2.4 3.8 1.9 1.6-.5 2.4-2.2 1.9-3.8l-4.5-13.4L71 78.4v42.2c-1.8-.5-3.5-1.5-4.9-2.8-1.1-1.1-3.1-1.1-4.2 0-2.1 2.1-4.9 3.3-7.9 3.3s-5.8-1.2-7.9-3.3c-1.1-1.1-3.1-1.1-4.2 0-2.1 2.1-4.9 3.3-7.9 3.3s-5.8-1.2-7.9-3.3c-1.2-1.2-3.1-1.2-4.2 0-2.1 2.1-4.9 3.3-7.9 3.3-1.7 0-3 1.3-3 3s1.3 3 3 3c3.6 0 7.1-1.1 10-3.2 2.9 2.1 6.4 3.2 10 3.2s7.1-1.1 10-3.2c2.9 2.1 6.4 3.2 10 3.2s7.1-1.1 10-3.2c2.9 2.1 6.4 3.2 10 3.2h40c0 0 0 0 0 0 .2 0 .3 0 .5 0 0 0 0 0 .1 0 .1 0 .3-.1.4-.1.1 0 .1 0 .2-.1.1 0 .2-.1.2-.1.1 0 .1-.1.2-.1.1 0 .2-.1.2-.1 0 0 .1-.1.1-.1.1-.1.2-.1.2-.2 0 0 .1-.1.1-.1.1-.1.1-.2.2-.2 0 0 .1-.1.1-.2.1-.1.1-.2.2-.2.1-.1.1-.3.2-.4l10-30C127.3 93.4 126.6 91.8 125.1 91.2zM67 7h14v21H67V7zM99 51H49V36c0-1.1.9-2 2-2h46c1.1 0 2 .9 2 2V51zM4 122.9c-.2 0-.4 0-.6-.1-.2 0-.4-.1-.6-.2-.2-.1-.3-.2-.5-.3-.2-.1-.3-.2-.5-.4-.1-.1-.3-.3-.4-.5-.1-.2-.2-.3-.3-.5-.1-.2-.1-.4-.2-.6 0-.2-.1-.4-.1-.6 0-.8.3-1.6.9-2.1.1-.1.3-.3.5-.4.2-.1.3-.2.5-.3.2-.1.4-.1.6-.2.4-.1.8-.1 1.2 0 .2 0 .4.1.6.2.2.1.4.2.5.3.2.1.3.2.5.4.1.1.3.3.4.5.1.2.2.3.3.5.1.2.1.4.2.6 0 .2.1.4.1.6 0 .2 0 .4-.1.6 0 .2-.1.4-.2.6-.1.2-.2.4-.3.5-.1.2-.2.3-.4.5-.1.1-.3.3-.5.4-.2.1-.3.2-.5.3-.2.1-.4.1-.6.2C4.4 122.8 4.2 122.9 4 122.9z" class="color444b54 svgShape"/></svg>