<svg xmlns="http://www.w3.org/2000/svg" viewBox="0 0 24 24"><circle cx="17" cy="8.5" r="3.5" fill="#01b3a7" class="color0377be svgShape"/><path fill="#01b3a7" d="M22.375 14.431C21.115 13.778 19.16 13 17 13s-4.116.778-5.375 1.431A3.001 3.001 0 0 0 10 17.105V19h14v-1.895c0-1.13-.623-2.154-1.625-2.674z" class="color0377be svgShape"/><linearGradient id="a" x1="12.827" x2="15.747" y1="16.278" y2="19.197" gradientUnits="userSpaceOnUse"><stop class="stopColor010101 svgShape" offset="0" stop-color="#010101" stop-opacity=".1"/><stop class="stopColor010101 svgShape" offset="1" stop-color="#010101" stop-opacity="0"/></linearGradient><path fill="url(#a)" d="M17.091 19l-3.683-3.692c.368.506.592 1.145.592 1.797V19h3.091z"/><path fill="#010101" d="M10 18.75h14V19H10z" class="color010101 svgShape" opacity=".1"/><path fill="#fff" d="M17 5.25a3.498 3.498 0 0 1 3.487 3.375c.002-.042.013-.082.013-.125C20.5 6.57 18.93 5 17 5s-3.5 1.57-3.5 3.5c0 .043.011.083.013.125A3.498 3.498 0 0 1 17 5.25z" class="colorffffff svgShape" opacity=".2"/><path fill="#010101" d="M17 11.75a3.498 3.498 0 0 1-3.487-3.375c-.002.042-.013.082-.013.125 0 1.93 1.57 3.5 3.5 3.5s3.5-1.57 3.5-3.5c0-.043-.011-.083-.013-.125A3.498 3.498 0 0 1 17 11.75z" class="color010101 svgShape" opacity=".1"/><path fill="#fff" d="M22.375 14.431C21.115 13.778 19.16 13 17 13s-4.116.778-5.375 1.431A3.001 3.001 0 0 0 10 17.105v.25c0-1.13.623-2.154 1.625-2.674 1.26-.653 3.214-1.431 5.375-1.431s4.116.778 5.375 1.431A3.001 3.001 0 0 1 24 17.355v-.25c0-1.13-.623-2.154-1.625-2.674z" class="colorffffff svgShape" opacity=".2"/><circle cx="7" cy="8.5" r="3.5" fill="#2dd4c9" class="color2d98d4 svgShape"/><path fill="#2dd4c9" d="M12.375 14.431C11.115 13.778 9.16 13 7 13s-4.116.778-5.375 1.431A3.001 3.001 0 0 0 0 17.105V19h14v-1.895c0-1.13-.623-2.154-1.625-2.674z" class="color2d98d4 svgShape"/><path fill="#010101" d="M0 18.75h14V19H0z" class="color010101 svgShape" opacity=".1"/><path fill="#fff" d="M7 5.25a3.498 3.498 0 0 1 3.487 3.375c.002-.042.013-.082.013-.125C10.5 6.57 8.93 5 7 5S3.5 6.57 3.5 8.5c0 .043.011.083.013.125A3.498 3.498 0 0 1 7 5.25z" class="colorffffff svgShape" opacity=".2"/><path fill="#010101" d="M7 11.75a3.498 3.498 0 0 1-3.487-3.375c-.002.042-.013.082-.013.125C3.5 10.43 5.07 12 7 12s3.5-1.57 3.5-3.5c0-.043-.011-.083-.013-.125A3.498 3.498 0 0 1 7 11.75z" class="color010101 svgShape" opacity=".1"/><path fill="#fff" d="M12.375 14.431C11.115 13.778 9.16 13 7 13s-4.116.778-5.375 1.431A3.001 3.001 0 0 0 0 17.105v.25c0-1.13.623-2.154 1.625-2.674C2.885 14.028 4.84 13.25 7 13.25s4.116.778 5.375 1.431A3.001 3.001 0 0 1 14 17.355v-.25c0-1.13-.623-2.154-1.625-2.674z" class="colorffffff svgShape" opacity=".2"/><linearGradient id="b" x1="2.825" x2="23.982" y1="9.173" y2="19.039" gradientUnits="userSpaceOnUse"><stop class="stopColorffffff svgShape" offset="0" stop-color="#fff" stop-opacity=".2"/><stop class="stopColorffffff svgShape" offset="1" stop-color="#fff" stop-opacity="0"/></linearGradient><path fill="url(#b)" d="M7 12c1.93 0 3.5-1.57 3.5-3.5S8.93 5 7 5 3.5 6.57 3.5 8.5 5.07 12 7 12zm10 0c1.93 0 3.5-1.57 3.5-3.5S18.93 5 17 5s-3.5 1.57-3.5 3.5S15.07 12 17 12zm5.375 2.431C21.115 13.778 19.16 13 17 13c-1.96 0-3.745.64-5 1.246C10.745 13.64 8.96 13 7 13c-2.161 0-4.116.778-5.375 1.431A3.001 3.001 0 0 0 0 17.105V19h24v-1.895c0-1.13-.623-2.154-1.625-2.674z"/></svg>